
<svg
  xmlns="http://www.w3.org/2000/svg"
  width="48"
  height="48"
  viewBox="0 0 48 48"
>
  <rect width="48" height="48" rx="8" fill="#2EB698" />
  <!-- WiFi arcs -->
  <path
    d="M10 25.1a22 22 0 0 1 28.16 0"
    fill="none"
    stroke="#ffffff"
    strokeWidth="2.5"
    strokeLinecap="round"
    strokeLinejoin="round"
  />
  <path
    d="M2.84 18a32 32 0 0 1 42.32 0"
    fill="none"
    stroke="#ffffff"
    strokeWidth="2.5"
    strokeLinecap="round"
    strokeLinejoin="round"
  />
  <path
    d="M17.06 32.22a12 12 0 0 1 13.9 0"
    fill="none"
    stroke="#ffffff"
    strokeWidth="2.5"
    strokeLinecap="round"
    strokeLinejoin="round"
  />
  <!-- Dollar sign in circle -->
  <circle cx="24" cy="40" r="6" fill="#005E50" />
  <path
    d="M24 37v6"
    fill="none"
    stroke="#ffffff"
    strokeWidth="2"
    strokeLinecap="round"
    strokeLinejoin="round"
  />
  <path
    d="M26 38h-3c-.83 0-1.5.67-1.5 1.5 0 .83.67 1.5 1.5 1.5h2c.83 0 1.5.67 1.5 1.5 0 .83-.67 1.5-1.5 1.5h-3"
    fill="none"
    stroke="#ffffff"
    strokeWidth="2"
    strokeLinecap="round"
    strokeLinejoin="round"
  />
</svg>
